<?xml version="1.0" encoding="utf-8"?>
<!-- Generator: Adobe Illustrator 21.0.0, SVG Export Plug-In . SVG Version: 6.00 Build 0)  -->
<svg version="1.1" id="Layer_1" xmlns="http://www.w3.org/2000/svg" xmlns:xlink="http://www.w3.org/1999/xlink" x="0px" y="0px"
	 viewBox="0 0 640 247" style="enable-background:new 0 0 640 247;" xml:space="preserve">
<style type="text/css">
	.st0{opacity:0.4;fill:#C50000;}
	.st1{fill:#FFFFFF;}
	.st2{font-family:'GillSans';}
	.st3{font-size:12px;}
	.st4{font-family:'GillSans-Italic';}
	.st5{font-size:9px;}
	.st6{font-size:11.4px;}
	.st7{letter-spacing:1;}
	.st8{fill:none;stroke:#000000;stroke-miterlimit:10;}
	.st9{fill:none;stroke:#C00000;stroke-miterlimit:10;}
	.st10{fill:#C00000;}
</style>
<rect x="380" y="3" class="st0" width="56" height="240"/>
<g>
	<rect x="71.6" y="34.9" class="st1" width="27.5" height="27.5"/>
	<path d="M98.6,35.4v26.5H72.1V35.4H98.6 M99.6,34.4H71.1v28.5h28.5V34.4L99.6,34.4z"/>
</g>
<g>
	<rect x="352.8" y="34.9" class="st1" width="27.5" height="27.5"/>
	<path d="M379.8,35.4v26.5h-26.5V35.4H379.8 M380.8,34.4h-28.5v28.5h28.5V34.4L380.8,34.4z"/>
</g>
<g>
	<rect x="436.4" y="34.9" class="st1" width="113" height="27.5"/>
	<path d="M548.9,35.4v26.5h-112V35.4H548.9 M549.9,34.4h-114v28.5h114V34.4L549.9,34.4z"/>
</g>
<g>
	<path d="M435.8,35.4v26.5h-55V35.4H435.8 M436.8,34.4h-57v28.5h57V34.4L436.8,34.4z"/>
</g>
<g>
	<rect x="549.4" y="34.9" class="st1" width="84.5" height="27.5"/>
	<path d="M633.4,35.4v26.5h-83.5V35.4H633.4 M634.4,34.4h-85.5v28.5h85.5V34.4L634.4,34.4z"/>
</g>
<g>
	<rect x="239.7" y="34.9" class="st1" width="113" height="27.5"/>
	<path d="M352.2,35.4v26.5h-112V35.4H352.2 M353.2,34.4h-114v28.5h114V34.4L353.2,34.4z"/>
</g>
<g>
	<rect x="183.7" y="34.9" class="st1" width="56" height="27.5"/>
	<path d="M239.2,35.4v26.5h-55V35.4H239.2 M240.2,34.4h-57v28.5h57V34.4L240.2,34.4z"/>
</g>
<g>
	<rect x="99.1" y="34.9" class="st1" width="84.5" height="27.5"/>
	<path d="M183.1,35.4v26.5H99.6V35.4H183.1 M184.1,34.4H98.6v28.5h85.5V34.4L184.1,34.4z"/>
</g>
<text transform="matrix(1 0 0 1 3.6665 15)"><tspan x="0" y="0" class="st2 st3">node </tspan><tspan x="27.8" y="0" class="st4 st3">i</tspan><tspan x="0" y="12" class="st2 st3">(</tspan><tspan x="3.9" y="12" class="st4 st3">i = 1... N</tspan><tspan x="44.8" y="12" class="st2 st3">)</tspan></text>
<text transform="matrix(1 0 0 1 2.6665 237)" class="st2 st3">chosen node:</text>
<text transform="matrix(1 0 0 1 3.6665 51)"><tspan x="0" y="0" class="st2 st3">weight </tspan><tspan x="35.5" y="0" class="st4 st3">w</tspan><tspan x="42.8" y="2" class="st4 st5">i</tspan></text>
<text transform="matrix(1 0 0 1 82.1582 18.1245)" class="st2 st6">1</text>
<text transform="matrix(1 0 0 1 136.3081 18.1245)" class="st2 st6">2</text>
<text transform="matrix(1 0 0 1 207.5581 18.1245)" class="st2 st6">3</text>
<text transform="matrix(1 0 0 1 293.0581 18.1245)" class="st2 st6">4</text>
<text transform="matrix(1 0 0 1 363.3584 18.1245)" class="st2 st6">5</text>
<text transform="matrix(1 0 0 1 404.3076 18.1245)" class="st2 st6">6</text>
<text transform="matrix(1 0 0 1 404.3076 234.1245)" class="st2 st6">6</text>
<text transform="matrix(1 0 0 1 486.8584 18.1245)" class="st2 st6">7</text>
<text transform="matrix(1 0 0 1 589.3584 18.1245)" class="st2 st6">8</text>
<text transform="matrix(1 0 0 1 82.1582 52.4746)" class="st2 st6">1</text>
<text transform="matrix(1 0 0 1 136.3081 52.4746)" class="st2 st6">3</text>
<text transform="matrix(1 0 0 1 207.5581 52.4746)" class="st2 st6">2</text>
<text transform="matrix(1 0 0 1 293.0581 52.4746)" class="st2 st6">4</text>
<text transform="matrix(1 0 0 1 363.3584 52.4746)" class="st2 st6">1</text>
<text transform="matrix(1 0 0 1 404.3076 52.4746)" class="st2 st6">2</text>
<text transform="matrix(1 0 0 1 486.8584 52.4746)" class="st2 st6">4</text>
<text transform="matrix(1 0 0 1 589.3584 52.4746)" class="st2 st6">3</text>
<text transform="matrix(1 0 0 1 96.4082 92.5747)" class="st2 st6">1</text>
<text transform="matrix(1 0 0 1 68.4082 92.5747)" class="st2 st6">0</text>
<text transform="matrix(1 0 0 1 68.4082 155.5747)" class="st2 st6">0</text>
<text transform="matrix(1 0 0 1 180.958 92.5747)" class="st2 st6">4</text>
<text transform="matrix(1 0 0 1 236.0581 92.5747)" class="st2 st6">6</text>
<text transform="matrix(1 0 0 1 346.2578 92.5747)" class="st2 st6">10</text>
<text transform="matrix(1 0 0 1 374.7578 92.5747)" class="st2 st6">11</text>
<text transform="matrix(1 0 0 1 430.8076 92.5747)" class="st2 st6">13</text>
<text transform="matrix(1 0 0 1 541.958 92.5747)" class="st2 st6">17</text>
<text transform="matrix(1 0 0 1 627.0078 92.5747)" class="st2 st6">20</text>
<text transform="matrix(1 0 0 1 3.5 85)"><tspan x="0" y="0" class="st2 st3">cumulative</tspan><tspan x="0" y="12" class="st2 st3">weights </tspan><tspan x="40.1" y="12" class="st4 st3">c</tspan><tspan x="44.7" y="14" class="st4 st5">i</tspan><tspan x="0" y="24" class="st2 st3">(</tspan><tspan x="3.9" y="24" class="st4 st3">c</tspan><tspan x="8.5" y="26" class="st4 st5">0</tspan><tspan x="13.2" y="24" class="st2 st3"> = 0; </tspan><tspan x="0" y="36" class="st4 st3"> c</tspan><tspan x="8" y="38" class="st4 st5">i</tspan><tspan x="9.6" y="36" class="st2 st3"> = </tspan><tspan x="23.3" y="36" class="st4 st3">c</tspan><tspan x="27.9" y="38" class="st4 st5 st7">i</tspan><tspan x="31.4" y="38" class="st2 st5">–1</tspan><tspan x="40.4" y="36" class="st2 st3">+</tspan><tspan x="48" y="36" class="st4 st3">w</tspan><tspan x="55.4" y="38" class="st4 st5">i</tspan><tspan x="57.1" y="36" class="st2 st3">)</tspan></text>
<line class="st8" x1="71.1" y1="103" x2="633.9" y2="103"/>
<line class="st8" x1="99.1" y1="102.6" x2="99.1" y2="95.9"/>
<line class="st8" x1="71.1" y1="103.6" x2="71.1" y2="95.9"/>
<line class="st8" x1="71.1" y1="166.6" x2="71.1" y2="158.9"/>
<line class="st8" x1="183.6" y1="103" x2="183.6" y2="96.4"/>
<line class="st8" x1="239.7" y1="103" x2="239.7" y2="96.4"/>
<line class="st8" x1="352.8" y1="103" x2="352.8" y2="96.4"/>
<line class="st8" x1="380.3" y1="103" x2="380.3" y2="96.4"/>
<line class="st8" x1="436.4" y1="103" x2="436.4" y2="96.4"/>
<line class="st8" x1="549.4" y1="103" x2="549.4" y2="96.4"/>
<line class="st8" x1="633.5" y1="103" x2="633.5" y2="96.4"/>
<text transform="matrix(1 0 0 1 89.7578 155.4248)" class="st2 st6">0.05</text>
<text transform="matrix(1 0 0 1 173.3579 155.4248)" class="st2 st6">0.20</text>
<text transform="matrix(1 0 0 1 229.4082 155.4248)" class="st2 st6">0.30</text>
<text transform="matrix(1 0 0 1 340.7578 155.4248)" class="st2 st6">0.50</text>
<text transform="matrix(1 0 0 1 371.0576 155.4248)" class="st2 st6">0.55</text>
<text transform="matrix(1 0 0 1 426.2578 155.4248)" class="st2 st6">0.65</text>
<text transform="matrix(1 0 0 1 540.3076 155.4248)" class="st2 st6">0.85</text>
<text transform="matrix(1 0 0 1 630.7578 155.4248)" class="st2 st6">1</text>
<text transform="matrix(1 0 0 1 3.5 144)"><tspan x="0" y="0" class="st2 st3">normalized</tspan><tspan x="0" y="12" class="st2 st3">cumulative</tspan><tspan x="0" y="24" class="st2 st3">weights </tspan><tspan x="40.1" y="24" class="st4 st3">p</tspan><tspan x="46" y="26" class="st4 st5">i</tspan><tspan x="0" y="36" class="st2 st3">(</tspan><tspan x="3.9" y="36" class="st4 st3">p</tspan><tspan x="9.8" y="38" class="st4 st5">i</tspan><tspan x="11.5" y="36" class="st4 st3"> = c</tspan><tspan x="29.7" y="38" class="st4 st5">i</tspan><tspan x="31.4" y="36" class="st4 st3"> / c</tspan><tspan x="46.1" y="38" class="st4 st5">N</tspan><tspan x="52.3" y="36" class="st2 st3">)</tspan></text>
<line class="st8" x1="71.1" y1="165.9" x2="633.9" y2="165.9"/>
<g>
	<g>
		<line class="st9" x1="71.1" y1="203.9" x2="388.5" y2="203.9"/>
		<g>
			<rect x="388" y="200.6" class="st10" width="1" height="6.5"/>
		</g>
	</g>
</g>
<line class="st8" x1="99.1" y1="165.4" x2="99.1" y2="158.8"/>
<line class="st8" x1="183.6" y1="165.9" x2="183.6" y2="159.2"/>
<line class="st8" x1="239.7" y1="165.9" x2="239.7" y2="159.2"/>
<line class="st8" x1="352.8" y1="165.9" x2="352.8" y2="159.2"/>
<line class="st8" x1="380.3" y1="165.9" x2="380.3" y2="159.2"/>
<line class="st8" x1="436.4" y1="165.9" x2="436.4" y2="159.2"/>
<line class="st8" x1="549.4" y1="165.9" x2="549.4" y2="159.2"/>
<line class="st8" x1="633.5" y1="165.9" x2="633.5" y2="159.2"/>
<text transform="matrix(1 0 0 1 2.5 202.5)"><tspan x="0" y="0" class="st2 st3">random </tspan><tspan x="41.2" y="0" class="st4 st3">x</tspan><tspan x="0" y="12" class="st2 st3">drawn from [0, 1)</tspan></text>
<text transform="matrix(1 0 0 1 365 197.5)" class="st2 st3">0.563357</text>
</svg>
